G04 MADE WITH FRITZING*
G04 WWW.FRITZING.ORG*
G04 DOUBLE SIDED*
G04 HOLES PLATED*
G04 CONTOUR ON CENTER OF CONTOUR VECTOR*
%ASAXBY*%
%FSLAX23Y23*%
%MOIN*%
%OFA0B0*%
%SFA1.0B1.0*%
%ADD10C,0.094488*%
%ADD11C,0.075000*%
%ADD12C,0.077701*%
%ADD13C,0.070555*%
%ADD14C,0.070583*%
%ADD15C,0.099000*%
%ADD16R,0.070570X0.070542*%
%ADD17R,0.099000X0.099000*%
%ADD18C,0.024000*%
%ADD19C,0.032000*%
%ADD20C,0.048000*%
%ADD21R,0.001000X0.001000*%
%LNCOPPER1*%
G90*
G70*
G54D10*
X239Y714D03*
X239Y514D03*
X239Y314D03*
X1906Y1066D03*
X1906Y866D03*
X1906Y666D03*
X1906Y466D03*
X1703Y294D03*
X1703Y94D03*
X2170Y2586D03*
X2170Y2386D03*
X2170Y2186D03*
X2170Y1986D03*
X157Y1859D03*
X157Y2059D03*
X157Y2259D03*
X157Y2459D03*
G54D11*
X1030Y1776D03*
X1030Y1376D03*
G54D12*
X694Y784D03*
X694Y684D03*
X694Y584D03*
X694Y484D03*
X694Y384D03*
X694Y284D03*
X694Y184D03*
X694Y84D03*
X1393Y784D03*
X1393Y684D03*
X1393Y584D03*
X1393Y484D03*
X1393Y384D03*
X1393Y284D03*
X1393Y184D03*
X1393Y84D03*
G54D13*
X1387Y1070D03*
X1387Y1170D03*
X1387Y1270D03*
X1387Y1370D03*
X1387Y1470D03*
X1387Y1570D03*
X1387Y1670D03*
X1387Y1770D03*
X1387Y1870D03*
G54D14*
X1387Y1970D03*
X1387Y2070D03*
X1387Y2170D03*
G54D13*
X1387Y2270D03*
X1387Y2370D03*
G54D14*
X1387Y2470D03*
X1387Y2570D03*
X1387Y2670D03*
G54D13*
X787Y1070D03*
X787Y1170D03*
X787Y1270D03*
X787Y1370D03*
X787Y1470D03*
X787Y1570D03*
X787Y1870D03*
G54D14*
X787Y1970D03*
G54D13*
X787Y1770D03*
X787Y1670D03*
G54D14*
X787Y2070D03*
X787Y2170D03*
G54D13*
X787Y2270D03*
X787Y2370D03*
G54D14*
X787Y2470D03*
X787Y2570D03*
X787Y2670D03*
G54D15*
X285Y989D03*
X285Y1189D03*
X485Y1089D03*
G54D10*
X1953Y1706D03*
X1953Y1506D03*
X1953Y1306D03*
G54D11*
X409Y1807D03*
X509Y1807D03*
X409Y1997D03*
X509Y1997D03*
X409Y2173D03*
X509Y2173D03*
X409Y2363D03*
X509Y2363D03*
X1670Y1751D03*
X1770Y1751D03*
X1877Y1968D03*
X1877Y2068D03*
X1877Y2207D03*
X1877Y2307D03*
X1877Y2452D03*
X1877Y2552D03*
X1664Y1854D03*
X1664Y1954D03*
X1664Y2094D03*
X1664Y2194D03*
X1664Y2327D03*
X1664Y2427D03*
X1664Y2540D03*
X1664Y2640D03*
G54D16*
X1387Y1070D03*
G54D17*
X285Y1189D03*
G54D18*
X509Y1969D02*
X509Y1836D01*
G54D19*
D02*
X386Y88D02*
X259Y284D01*
D02*
X450Y426D02*
X260Y685D01*
D02*
X435Y240D02*
X260Y485D01*
D02*
X664Y302D02*
X450Y426D01*
D02*
X660Y191D02*
X435Y240D01*
D02*
X659Y85D02*
X386Y88D01*
G54D18*
D02*
X1030Y2417D02*
X1030Y1805D01*
D02*
X1360Y2558D02*
X1030Y2417D01*
G54D20*
D02*
X2055Y863D02*
X1948Y865D01*
D02*
X2189Y974D02*
X2055Y863D01*
D02*
X2195Y1709D02*
X2189Y974D01*
D02*
X1995Y1707D02*
X2195Y1709D01*
G54D18*
D02*
X1026Y785D02*
X722Y692D01*
D02*
X1162Y730D02*
X722Y593D01*
G54D19*
D02*
X438Y785D02*
X665Y784D01*
D02*
X304Y963D02*
X438Y785D01*
G54D18*
D02*
X1156Y2283D02*
X1162Y730D01*
D02*
X1364Y2451D02*
X1156Y2283D01*
D02*
X1030Y1348D02*
X1026Y785D01*
G54D19*
D02*
X2134Y2188D02*
X1911Y2205D01*
D02*
X1910Y2316D02*
X2135Y2376D01*
D02*
X2135Y2394D02*
X1910Y2444D01*
D02*
X1911Y2556D02*
X2134Y2581D01*
D02*
X1611Y469D02*
X1593Y1431D01*
D02*
X1593Y1431D02*
X1416Y1550D01*
D02*
X1689Y322D02*
X1611Y469D01*
D02*
X320Y1201D02*
X754Y1358D01*
G54D20*
D02*
X2054Y465D02*
X1937Y466D01*
G54D18*
D02*
X509Y2334D02*
X509Y2202D01*
D02*
X509Y2145D02*
X509Y2026D01*
D02*
X187Y1853D02*
X381Y1813D01*
D02*
X499Y1780D02*
X296Y1218D01*
D02*
X1996Y1820D02*
X1798Y1759D01*
D02*
X2148Y1964D02*
X1996Y1820D01*
G54D19*
D02*
X2134Y1983D02*
X1911Y1970D01*
D02*
X1909Y2080D02*
X2136Y2172D01*
G54D18*
D02*
X1603Y1567D02*
X1417Y1569D01*
D02*
X1660Y1724D02*
X1603Y1567D01*
D02*
X185Y2448D02*
X382Y2373D01*
D02*
X186Y2249D02*
X382Y2182D01*
D02*
X187Y2052D02*
X381Y2004D01*
G54D19*
D02*
X1674Y284D02*
X1421Y194D01*
G54D18*
D02*
X1513Y2470D02*
X1410Y2388D01*
D02*
X1512Y2632D02*
X1513Y2470D01*
D02*
X1635Y2638D02*
X1512Y2632D01*
D02*
X1639Y2413D02*
X1413Y2284D01*
D02*
X1503Y2072D02*
X1417Y2070D01*
D02*
X1641Y2177D02*
X1503Y2072D01*
D02*
X1636Y1946D02*
X1416Y1878D01*
D02*
X1246Y1627D02*
X1243Y977D01*
D02*
X1359Y1661D02*
X1246Y1627D01*
D02*
X1243Y977D02*
X1375Y807D01*
D02*
X1666Y1826D02*
X1668Y1780D01*
D02*
X1850Y2563D02*
X1690Y2629D01*
D02*
X1852Y2321D02*
X1689Y2413D01*
D02*
X1692Y2196D02*
X1848Y2206D01*
D02*
X1848Y1966D02*
X1692Y1956D01*
G54D21*
X2049Y887D02*
X2059Y887D01*
X2046Y886D02*
X2062Y886D01*
X2044Y885D02*
X2064Y885D01*
X2042Y884D02*
X2066Y884D01*
X2040Y883D02*
X2067Y883D01*
X2039Y882D02*
X2069Y882D01*
X2038Y881D02*
X2070Y881D01*
X2037Y880D02*
X2071Y880D01*
X2036Y879D02*
X2072Y879D01*
X2035Y878D02*
X2072Y878D01*
X2034Y877D02*
X2073Y877D01*
X2034Y876D02*
X2074Y876D01*
X2033Y875D02*
X2074Y875D01*
X2033Y874D02*
X2075Y874D01*
X2032Y873D02*
X2075Y873D01*
X2032Y872D02*
X2076Y872D01*
X2032Y871D02*
X2076Y871D01*
X2031Y870D02*
X2076Y870D01*
X2031Y869D02*
X2077Y869D01*
X2031Y868D02*
X2077Y868D01*
X2031Y867D02*
X2077Y867D01*
X2030Y866D02*
X2077Y866D01*
X2030Y865D02*
X2077Y865D01*
X2030Y864D02*
X2077Y864D01*
X2030Y863D02*
X2077Y863D01*
X2030Y862D02*
X2077Y862D01*
X2030Y861D02*
X2077Y861D01*
X2030Y860D02*
X2077Y860D01*
X2030Y859D02*
X2077Y859D01*
X2030Y858D02*
X2077Y858D01*
X2030Y857D02*
X2077Y857D01*
X2030Y856D02*
X2077Y856D01*
X2030Y855D02*
X2077Y855D01*
X2030Y854D02*
X2077Y854D01*
X2030Y853D02*
X2077Y853D01*
X2030Y852D02*
X2077Y852D01*
X2030Y851D02*
X2077Y851D01*
X2030Y850D02*
X2077Y850D01*
X2030Y849D02*
X2077Y849D01*
X2030Y848D02*
X2077Y848D01*
X2030Y847D02*
X2077Y847D01*
X2030Y846D02*
X2077Y846D01*
X2030Y845D02*
X2077Y845D01*
X2030Y844D02*
X2077Y844D01*
X2030Y843D02*
X2077Y843D01*
X2030Y842D02*
X2077Y842D01*
X2030Y841D02*
X2077Y841D01*
X2030Y840D02*
X2077Y840D01*
X2030Y839D02*
X2077Y839D01*
X2030Y838D02*
X2077Y838D01*
X2030Y837D02*
X2077Y837D01*
X2030Y836D02*
X2077Y836D01*
X2030Y835D02*
X2077Y835D01*
X2030Y834D02*
X2077Y834D01*
X2030Y833D02*
X2077Y833D01*
X2030Y832D02*
X2077Y832D01*
X2030Y831D02*
X2077Y831D01*
X2030Y830D02*
X2077Y830D01*
X2030Y829D02*
X2077Y829D01*
X2030Y828D02*
X2077Y828D01*
X2030Y827D02*
X2077Y827D01*
X2030Y826D02*
X2077Y826D01*
X2030Y825D02*
X2077Y825D01*
X2030Y824D02*
X2077Y824D01*
X2030Y823D02*
X2077Y823D01*
X2030Y822D02*
X2077Y822D01*
X2030Y821D02*
X2077Y821D01*
X2030Y820D02*
X2077Y820D01*
X2030Y819D02*
X2077Y819D01*
X2030Y818D02*
X2077Y818D01*
X2030Y817D02*
X2077Y817D01*
X2030Y816D02*
X2077Y816D01*
X2030Y815D02*
X2077Y815D01*
X2030Y814D02*
X2077Y814D01*
X2030Y813D02*
X2077Y813D01*
X2030Y812D02*
X2077Y812D01*
X2030Y811D02*
X2077Y811D01*
X2030Y810D02*
X2077Y810D01*
X2030Y809D02*
X2077Y809D01*
X2030Y808D02*
X2077Y808D01*
X2030Y807D02*
X2077Y807D01*
X2030Y806D02*
X2077Y806D01*
X2030Y805D02*
X2077Y805D01*
X2030Y804D02*
X2077Y804D01*
X2030Y803D02*
X2077Y803D01*
X2030Y802D02*
X2077Y802D01*
X2030Y801D02*
X2077Y801D01*
X2030Y800D02*
X2077Y800D01*
X2030Y799D02*
X2077Y799D01*
X2030Y798D02*
X2077Y798D01*
X2030Y797D02*
X2077Y797D01*
X2030Y796D02*
X2077Y796D01*
X2030Y795D02*
X2077Y795D01*
X2030Y794D02*
X2077Y794D01*
X2030Y793D02*
X2077Y793D01*
X2030Y792D02*
X2077Y792D01*
X2030Y791D02*
X2077Y791D01*
X2030Y790D02*
X2077Y790D01*
X2030Y789D02*
X2077Y789D01*
X2030Y788D02*
X2077Y788D01*
X2030Y787D02*
X2077Y787D01*
X2030Y786D02*
X2077Y786D01*
X2030Y785D02*
X2077Y785D01*
X2030Y784D02*
X2077Y784D01*
X2030Y783D02*
X2077Y783D01*
X2030Y782D02*
X2077Y782D01*
X2030Y781D02*
X2077Y781D01*
X2030Y780D02*
X2077Y780D01*
X2030Y779D02*
X2077Y779D01*
X2030Y778D02*
X2077Y778D01*
X2030Y777D02*
X2077Y777D01*
X2030Y776D02*
X2077Y776D01*
X2030Y775D02*
X2077Y775D01*
X2030Y774D02*
X2077Y774D01*
X2030Y773D02*
X2077Y773D01*
X2030Y772D02*
X2077Y772D01*
X2030Y771D02*
X2077Y771D01*
X2030Y770D02*
X2077Y770D01*
X2030Y769D02*
X2077Y769D01*
X2030Y768D02*
X2077Y768D01*
X2030Y767D02*
X2077Y767D01*
X2030Y766D02*
X2077Y766D01*
X2030Y765D02*
X2077Y765D01*
X2030Y764D02*
X2077Y764D01*
X2030Y763D02*
X2077Y763D01*
X2030Y762D02*
X2077Y762D01*
X2030Y761D02*
X2077Y761D01*
X2030Y760D02*
X2077Y760D01*
X2030Y759D02*
X2077Y759D01*
X2030Y758D02*
X2077Y758D01*
X2030Y757D02*
X2077Y757D01*
X2030Y756D02*
X2077Y756D01*
X2030Y755D02*
X2077Y755D01*
X2030Y754D02*
X2077Y754D01*
X2030Y753D02*
X2077Y753D01*
X2030Y752D02*
X2077Y752D01*
X2030Y751D02*
X2077Y751D01*
X2030Y750D02*
X2077Y750D01*
X2030Y749D02*
X2077Y749D01*
X2030Y748D02*
X2077Y748D01*
X2030Y747D02*
X2077Y747D01*
X2030Y746D02*
X2077Y746D01*
X2030Y745D02*
X2077Y745D01*
X2030Y744D02*
X2077Y744D01*
X2030Y743D02*
X2077Y743D01*
X2030Y742D02*
X2077Y742D01*
X2030Y741D02*
X2077Y741D01*
X2030Y740D02*
X2077Y740D01*
X2030Y739D02*
X2077Y739D01*
X2030Y738D02*
X2077Y738D01*
X2030Y737D02*
X2077Y737D01*
X2030Y736D02*
X2077Y736D01*
X2030Y735D02*
X2077Y735D01*
X2030Y734D02*
X2077Y734D01*
X2030Y733D02*
X2077Y733D01*
X2030Y732D02*
X2077Y732D01*
X2030Y731D02*
X2077Y731D01*
X2030Y730D02*
X2077Y730D01*
X2030Y729D02*
X2077Y729D01*
X2030Y728D02*
X2077Y728D01*
X2030Y727D02*
X2077Y727D01*
X2030Y726D02*
X2077Y726D01*
X2030Y725D02*
X2077Y725D01*
X2030Y724D02*
X2077Y724D01*
X2030Y723D02*
X2077Y723D01*
X2030Y722D02*
X2077Y722D01*
X2030Y721D02*
X2077Y721D01*
X2030Y720D02*
X2077Y720D01*
X2030Y719D02*
X2077Y719D01*
X2030Y718D02*
X2077Y718D01*
X2030Y717D02*
X2077Y717D01*
X2030Y716D02*
X2077Y716D01*
X2030Y715D02*
X2077Y715D01*
X2030Y714D02*
X2077Y714D01*
X2030Y713D02*
X2077Y713D01*
X2030Y712D02*
X2077Y712D01*
X2030Y711D02*
X2077Y711D01*
X2030Y710D02*
X2077Y710D01*
X2030Y709D02*
X2077Y709D01*
X2030Y708D02*
X2077Y708D01*
X2030Y707D02*
X2077Y707D01*
X2030Y706D02*
X2077Y706D01*
X2030Y705D02*
X2077Y705D01*
X2030Y704D02*
X2077Y704D01*
X2030Y703D02*
X2077Y703D01*
X2030Y702D02*
X2077Y702D01*
X2030Y701D02*
X2077Y701D01*
X2030Y700D02*
X2077Y700D01*
X2030Y699D02*
X2077Y699D01*
X2030Y698D02*
X2077Y698D01*
X2030Y697D02*
X2077Y697D01*
X2030Y696D02*
X2077Y696D01*
X2030Y695D02*
X2077Y695D01*
X2030Y694D02*
X2077Y694D01*
X2030Y693D02*
X2077Y693D01*
X2030Y692D02*
X2077Y692D01*
X2030Y691D02*
X2077Y691D01*
X2030Y690D02*
X2077Y690D01*
X2030Y689D02*
X2077Y689D01*
X2030Y688D02*
X2077Y688D01*
X2030Y687D02*
X2077Y687D01*
X2030Y686D02*
X2077Y686D01*
X2030Y685D02*
X2077Y685D01*
X2030Y684D02*
X2077Y684D01*
X2030Y683D02*
X2077Y683D01*
X2030Y682D02*
X2077Y682D01*
X2030Y681D02*
X2077Y681D01*
X2030Y680D02*
X2077Y680D01*
X2030Y679D02*
X2077Y679D01*
X2030Y678D02*
X2077Y678D01*
X2030Y677D02*
X2077Y677D01*
X2030Y676D02*
X2077Y676D01*
X2030Y675D02*
X2077Y675D01*
X2030Y674D02*
X2077Y674D01*
X2030Y673D02*
X2077Y673D01*
X2030Y672D02*
X2077Y672D01*
X2030Y671D02*
X2077Y671D01*
X2030Y670D02*
X2077Y670D01*
X2030Y669D02*
X2077Y669D01*
X2030Y668D02*
X2077Y668D01*
X2030Y667D02*
X2077Y667D01*
X2030Y666D02*
X2077Y666D01*
X2030Y665D02*
X2077Y665D01*
X2030Y664D02*
X2077Y664D01*
X2030Y663D02*
X2077Y663D01*
X2030Y662D02*
X2077Y662D01*
X2030Y661D02*
X2077Y661D01*
X2030Y660D02*
X2077Y660D01*
X2030Y659D02*
X2077Y659D01*
X2030Y658D02*
X2077Y658D01*
X2030Y657D02*
X2077Y657D01*
X2030Y656D02*
X2077Y656D01*
X2030Y655D02*
X2077Y655D01*
X2030Y654D02*
X2077Y654D01*
X2030Y653D02*
X2077Y653D01*
X2030Y652D02*
X2077Y652D01*
X2030Y651D02*
X2077Y651D01*
X2030Y650D02*
X2077Y650D01*
X2030Y649D02*
X2077Y649D01*
X2030Y648D02*
X2077Y648D01*
X2030Y647D02*
X2077Y647D01*
X2030Y646D02*
X2077Y646D01*
X2030Y645D02*
X2077Y645D01*
X2030Y644D02*
X2077Y644D01*
X2030Y643D02*
X2077Y643D01*
X2030Y642D02*
X2077Y642D01*
X2030Y641D02*
X2077Y641D01*
X2030Y640D02*
X2077Y640D01*
X2030Y639D02*
X2077Y639D01*
X2030Y638D02*
X2077Y638D01*
X2030Y637D02*
X2077Y637D01*
X2030Y636D02*
X2077Y636D01*
X2030Y635D02*
X2077Y635D01*
X2030Y634D02*
X2077Y634D01*
X2030Y633D02*
X2077Y633D01*
X2030Y632D02*
X2077Y632D01*
X2030Y631D02*
X2077Y631D01*
X2030Y630D02*
X2077Y630D01*
X2030Y629D02*
X2077Y629D01*
X2030Y628D02*
X2077Y628D01*
X2030Y627D02*
X2077Y627D01*
X2030Y626D02*
X2077Y626D01*
X2030Y625D02*
X2077Y625D01*
X2030Y624D02*
X2077Y624D01*
X2030Y623D02*
X2077Y623D01*
X2030Y622D02*
X2077Y622D01*
X2030Y621D02*
X2077Y621D01*
X2030Y620D02*
X2077Y620D01*
X2030Y619D02*
X2077Y619D01*
X2030Y618D02*
X2077Y618D01*
X2030Y617D02*
X2077Y617D01*
X2030Y616D02*
X2077Y616D01*
X2030Y615D02*
X2077Y615D01*
X2030Y614D02*
X2077Y614D01*
X2030Y613D02*
X2077Y613D01*
X2030Y612D02*
X2077Y612D01*
X2030Y611D02*
X2077Y611D01*
X2030Y610D02*
X2077Y610D01*
X2030Y609D02*
X2077Y609D01*
X2030Y608D02*
X2077Y608D01*
X2030Y607D02*
X2077Y607D01*
X2030Y606D02*
X2077Y606D01*
X2030Y605D02*
X2077Y605D01*
X2030Y604D02*
X2077Y604D01*
X2030Y603D02*
X2077Y603D01*
X2030Y602D02*
X2077Y602D01*
X2030Y601D02*
X2077Y601D01*
X2030Y600D02*
X2077Y600D01*
X2030Y599D02*
X2077Y599D01*
X2030Y598D02*
X2077Y598D01*
X2030Y597D02*
X2077Y597D01*
X2030Y596D02*
X2077Y596D01*
X2030Y595D02*
X2077Y595D01*
X2030Y594D02*
X2077Y594D01*
X2030Y593D02*
X2077Y593D01*
X2030Y592D02*
X2077Y592D01*
X2030Y591D02*
X2077Y591D01*
X2030Y590D02*
X2077Y590D01*
X2030Y589D02*
X2077Y589D01*
X2030Y588D02*
X2077Y588D01*
X2030Y587D02*
X2077Y587D01*
X2030Y586D02*
X2077Y586D01*
X2030Y585D02*
X2077Y585D01*
X2030Y584D02*
X2077Y584D01*
X2030Y583D02*
X2077Y583D01*
X2030Y582D02*
X2077Y582D01*
X2030Y581D02*
X2077Y581D01*
X2030Y580D02*
X2077Y580D01*
X2030Y579D02*
X2077Y579D01*
X2030Y578D02*
X2077Y578D01*
X2030Y577D02*
X2077Y577D01*
X2030Y576D02*
X2077Y576D01*
X2030Y575D02*
X2077Y575D01*
X2030Y574D02*
X2077Y574D01*
X2030Y573D02*
X2077Y573D01*
X2030Y572D02*
X2077Y572D01*
X2030Y571D02*
X2077Y571D01*
X2030Y570D02*
X2077Y570D01*
X2030Y569D02*
X2077Y569D01*
X2030Y568D02*
X2077Y568D01*
X2030Y567D02*
X2077Y567D01*
X2030Y566D02*
X2077Y566D01*
X2030Y565D02*
X2077Y565D01*
X2030Y564D02*
X2077Y564D01*
X2030Y563D02*
X2077Y563D01*
X2030Y562D02*
X2077Y562D01*
X2030Y561D02*
X2077Y561D01*
X2030Y560D02*
X2077Y560D01*
X2030Y559D02*
X2077Y559D01*
X2030Y558D02*
X2077Y558D01*
X2030Y557D02*
X2077Y557D01*
X2030Y556D02*
X2077Y556D01*
X2030Y555D02*
X2077Y555D01*
X2030Y554D02*
X2077Y554D01*
X2030Y553D02*
X2077Y553D01*
X2030Y552D02*
X2077Y552D01*
X2030Y551D02*
X2077Y551D01*
X2030Y550D02*
X2077Y550D01*
X2030Y549D02*
X2077Y549D01*
X2030Y548D02*
X2077Y548D01*
X2030Y547D02*
X2077Y547D01*
X2030Y546D02*
X2077Y546D01*
X2030Y545D02*
X2077Y545D01*
X2030Y544D02*
X2077Y544D01*
X2030Y543D02*
X2077Y543D01*
X2030Y542D02*
X2077Y542D01*
X2030Y541D02*
X2077Y541D01*
X2030Y540D02*
X2077Y540D01*
X2030Y539D02*
X2077Y539D01*
X2030Y538D02*
X2077Y538D01*
X2030Y537D02*
X2077Y537D01*
X2030Y536D02*
X2077Y536D01*
X2030Y535D02*
X2077Y535D01*
X2030Y534D02*
X2077Y534D01*
X2030Y533D02*
X2077Y533D01*
X2030Y532D02*
X2077Y532D01*
X2030Y531D02*
X2077Y531D01*
X2030Y530D02*
X2077Y530D01*
X2030Y529D02*
X2077Y529D01*
X2030Y528D02*
X2077Y528D01*
X2030Y527D02*
X2077Y527D01*
X2030Y526D02*
X2077Y526D01*
X2030Y525D02*
X2077Y525D01*
X2030Y524D02*
X2077Y524D01*
X2030Y523D02*
X2077Y523D01*
X2030Y522D02*
X2077Y522D01*
X2030Y521D02*
X2077Y521D01*
X2030Y520D02*
X2077Y520D01*
X2030Y519D02*
X2077Y519D01*
X2030Y518D02*
X2077Y518D01*
X2030Y517D02*
X2077Y517D01*
X2030Y516D02*
X2077Y516D01*
X2030Y515D02*
X2077Y515D01*
X2030Y514D02*
X2077Y514D01*
X2030Y513D02*
X2077Y513D01*
X2030Y512D02*
X2077Y512D01*
X2030Y511D02*
X2077Y511D01*
X2030Y510D02*
X2077Y510D01*
X2030Y509D02*
X2077Y509D01*
X2030Y508D02*
X2077Y508D01*
X2030Y507D02*
X2077Y507D01*
X2030Y506D02*
X2077Y506D01*
X2030Y505D02*
X2077Y505D01*
X2030Y504D02*
X2077Y504D01*
X2030Y503D02*
X2077Y503D01*
X2030Y502D02*
X2077Y502D01*
X2030Y501D02*
X2077Y501D01*
X2030Y500D02*
X2077Y500D01*
X2030Y499D02*
X2077Y499D01*
X2030Y498D02*
X2077Y498D01*
X2030Y497D02*
X2077Y497D01*
X2030Y496D02*
X2077Y496D01*
X2030Y495D02*
X2077Y495D01*
X2030Y494D02*
X2077Y494D01*
X2030Y493D02*
X2077Y493D01*
X2030Y492D02*
X2077Y492D01*
X2030Y491D02*
X2077Y491D01*
X2030Y490D02*
X2077Y490D01*
X2030Y489D02*
X2077Y489D01*
X2030Y488D02*
X2077Y488D01*
X2030Y487D02*
X2077Y487D01*
X2030Y486D02*
X2077Y486D01*
X2030Y485D02*
X2077Y485D01*
X2030Y484D02*
X2077Y484D01*
X2030Y483D02*
X2077Y483D01*
X2030Y482D02*
X2077Y482D01*
X2030Y481D02*
X2077Y481D01*
X2030Y480D02*
X2077Y480D01*
X2030Y479D02*
X2077Y479D01*
X2030Y478D02*
X2077Y478D01*
X2030Y477D02*
X2077Y477D01*
X2030Y476D02*
X2077Y476D01*
X2030Y475D02*
X2077Y475D01*
X2030Y474D02*
X2077Y474D01*
X2030Y473D02*
X2077Y473D01*
X2030Y472D02*
X2077Y472D01*
X2030Y471D02*
X2077Y471D01*
X2030Y470D02*
X2077Y470D01*
X2030Y469D02*
X2077Y469D01*
X2030Y468D02*
X2077Y468D01*
X2030Y467D02*
X2077Y467D01*
X2030Y466D02*
X2077Y466D01*
X2030Y465D02*
X2077Y465D01*
X2030Y464D02*
X2077Y464D01*
X2030Y463D02*
X2076Y463D01*
X2030Y462D02*
X2076Y462D01*
X2030Y461D02*
X2076Y461D01*
X2030Y460D02*
X2076Y460D01*
X2030Y459D02*
X2076Y459D01*
X2031Y458D02*
X2075Y458D01*
X2031Y457D02*
X2075Y457D01*
X2031Y456D02*
X2075Y456D01*
X2032Y455D02*
X2074Y455D01*
X2032Y454D02*
X2074Y454D01*
X2033Y453D02*
X2073Y453D01*
X2033Y452D02*
X2073Y452D01*
X2034Y451D02*
X2072Y451D01*
X2035Y450D02*
X2071Y450D01*
X2036Y449D02*
X2070Y449D01*
X2037Y448D02*
X2069Y448D01*
X2038Y447D02*
X2068Y447D01*
X2039Y446D02*
X2067Y446D01*
X2040Y445D02*
X2066Y445D01*
X2042Y444D02*
X2064Y444D01*
X2044Y443D02*
X2062Y443D01*
X2047Y442D02*
X2059Y442D01*
D02*
G04 End of Copper1*
M02*