; NON-PLATED HOLES START AT T1
; THROUGH (PLATED) HOLES START AT T100
M48
INCH
T1C0.125984
T100C0.036076
T101C0.037250
T102C0.037222
T103C0.039370
T104C0.035000
T105C0.041000
%
T1
X021660Y001076
X001098Y001009
X021657Y028126
X001098Y028100
T100
X013934Y001841
X013934Y007839
X013934Y005840
X013934Y003841
X013934Y004840
X006940Y002841
X006940Y004840
X013934Y006839
X006940Y000842
X013934Y002841
X006940Y007839
X006940Y001841
X006940Y005840
X006940Y003841
X006940Y006839
X013934Y000842
T101
X007871Y021695
X007871Y026695
X007871Y024695
X013871Y021695
X007871Y020695
X007871Y019695
X013871Y020695
X007871Y025695
X013871Y019695
X013871Y026695
X013871Y025695
X013871Y024695
T102
X007871Y014695
X013871Y011695
X013871Y017695
X013871Y013695
X007871Y017695
X013871Y016695
X007871Y022695
X007871Y018695
X013871Y012695
X007871Y011695
X013871Y014695
X007871Y016695
X007871Y023695
X013871Y023695
X013871Y010695
X007871Y010695
X007871Y015695
X013871Y022695
X013871Y015695
X007871Y012695
X007871Y013695
X013871Y018695
T103
X021699Y019855
X019059Y010657
X002388Y003143
X017030Y000943
X019526Y017064
X019526Y015064
X002388Y005143
X001566Y020589
X021699Y025855
X017030Y002943
X019059Y008657
X001566Y018589
X001566Y024589
X021699Y021855
X019059Y004657
X019526Y013064
X019059Y006657
X021699Y023855
X002388Y007143
X001566Y022589
T104
X010297Y013764
X016637Y026397
X016702Y017509
X016637Y018542
X018768Y019675
X004087Y019973
X018768Y023073
X004087Y021731
X016637Y021939
X016637Y019542
X016637Y024267
X018768Y020675
X005087Y018073
X010297Y017764
X016637Y025397
X005087Y023630
X004087Y023630
X005087Y019973
X004087Y018073
X018768Y024516
X018768Y022073
X005087Y021731
X018768Y025516
X016637Y023267
X017702Y017509
X016637Y020939
T105
X002853Y009887
X004853Y010887
X002853Y011887
T00
M30
