; NON-PLATED HOLES START AT T1
; THROUGH (PLATED) HOLES START AT T100
M48
INCH
T1C0.086614
T100C0.037222
T101C0.041000
T102C0.035000
T103C0.039370
T104C0.036076
T105C0.037250
%
T1
X020179Y028126
X001098Y001009
X001098Y028100
X020182Y001076
T100
X007871Y011695
X007871Y022695
X013871Y010695
X007871Y016695
X007871Y017695
X013871Y018695
X013871Y016695
X013871Y014695
X007871Y018695
X007871Y012695
X007871Y013695
X013871Y015695
X013871Y023695
X007871Y023695
X007871Y010695
X013871Y011695
X013871Y013695
X007871Y015695
X007871Y014695
X013871Y022695
X013871Y012695
X013871Y017695
T101
X002853Y011887
X004853Y010887
X002853Y009887
T102
X010297Y017764
X010297Y013764
T103
X019424Y024014
X002388Y005143
X019424Y020014
X019059Y010658
X019062Y013262
X019062Y015262
X017030Y000943
X001566Y018589
X019059Y008658
X001566Y024589
X001566Y022589
X017030Y002943
X019059Y004658
X019062Y017262
X019424Y026014
X002388Y003143
X019424Y022014
X002388Y007143
X019059Y006658
X001566Y020589
T104
X013934Y004840
X006940Y002841
X013934Y002841
X013934Y003840
X013934Y007839
X006940Y001841
X013934Y006839
X006940Y000842
X013934Y001841
X006940Y005840
X006940Y007839
X013934Y005840
X006940Y004840
X006940Y003840
X013934Y000842
X006940Y006839
T105
X013871Y021695
X007871Y020695
X007871Y021695
X013871Y020695
X007871Y024695
X007871Y026695
X013871Y025695
X007871Y019695
X007871Y025695
X013871Y026695
X013871Y019695
X013871Y024695
T00
M30
