G04 MADE WITH FRITZING*
G04 WWW.FRITZING.ORG*
G04 DOUBLE SIDED*
G04 HOLES PLATED*
G04 CONTOUR ON CENTER OF CONTOUR VECTOR*
%ASAXBY*%
%FSLAX23Y23*%
%MOIN*%
%OFA0B0*%
%SFA1.0B1.0*%
%ADD10C,0.094488*%
%ADD11C,0.075000*%
%ADD12C,0.077701*%
%ADD13C,0.070555*%
%ADD14C,0.070583*%
%ADD15C,0.099000*%
%ADD16R,0.070570X0.070542*%
%ADD17R,0.099000X0.099000*%
%ADD18R,0.062992X0.074803*%
%ADD19R,0.074803X0.062992*%
%ADD20C,0.024000*%
%ADD21C,0.032000*%
%ADD22R,0.001000X0.001000*%
%LNCOPPER1*%
G90*
G70*
G54D10*
X239Y714D03*
X239Y514D03*
X239Y314D03*
G54D11*
X1030Y1776D03*
X1030Y1376D03*
G54D12*
X694Y784D03*
X694Y684D03*
X694Y584D03*
X694Y484D03*
X694Y384D03*
X694Y284D03*
X694Y184D03*
X694Y84D03*
X1393Y784D03*
X1393Y684D03*
X1393Y584D03*
X1393Y484D03*
X1393Y384D03*
X1393Y284D03*
X1393Y184D03*
X1393Y84D03*
G54D13*
X1387Y1070D03*
X1387Y1170D03*
X1387Y1270D03*
X1387Y1370D03*
X1387Y1470D03*
X1387Y1570D03*
X1387Y1670D03*
X1387Y1770D03*
X1387Y1870D03*
G54D14*
X1387Y1970D03*
X1387Y2070D03*
X1387Y2170D03*
G54D13*
X1387Y2270D03*
X1387Y2370D03*
G54D14*
X1387Y2470D03*
X1387Y2570D03*
X1387Y2670D03*
G54D13*
X787Y1070D03*
X787Y1170D03*
X787Y1270D03*
X787Y1370D03*
X787Y1470D03*
X787Y1570D03*
X787Y1870D03*
G54D14*
X787Y1970D03*
G54D13*
X787Y1770D03*
X787Y1670D03*
G54D14*
X787Y2070D03*
X787Y2170D03*
G54D13*
X787Y2270D03*
X787Y2370D03*
G54D14*
X787Y2470D03*
X787Y2570D03*
X787Y2670D03*
G54D15*
X285Y989D03*
X285Y1189D03*
X485Y1089D03*
G54D10*
X157Y1859D03*
X157Y2059D03*
X157Y2259D03*
X157Y2459D03*
X1942Y2601D03*
X1942Y2401D03*
X1942Y2201D03*
X1942Y2001D03*
X1703Y294D03*
X1703Y94D03*
X1906Y1066D03*
X1906Y866D03*
X1906Y666D03*
X1906Y466D03*
X1906Y1726D03*
X1906Y1526D03*
X1906Y1326D03*
G54D16*
X1387Y1070D03*
G54D17*
X285Y1189D03*
G54D18*
X411Y2380D03*
X533Y2380D03*
X411Y1825D03*
X533Y1825D03*
X411Y2190D03*
X533Y2190D03*
G54D19*
X1691Y2477D03*
X1691Y2599D03*
X1691Y2237D03*
X1691Y2359D03*
X1691Y2003D03*
X1691Y2125D03*
G54D18*
X1592Y1828D03*
X1714Y1828D03*
X411Y2015D03*
X533Y2015D03*
G54D20*
X533Y1983D02*
X533Y1856D01*
G54D21*
D02*
X450Y426D02*
X260Y685D01*
D02*
X435Y240D02*
X260Y485D01*
D02*
X664Y302D02*
X450Y426D01*
D02*
X660Y191D02*
X435Y240D01*
D02*
X386Y88D02*
X259Y284D01*
D02*
X659Y85D02*
X386Y88D01*
G54D20*
D02*
X1360Y2558D02*
X1030Y2417D01*
D02*
X1030Y2417D02*
X1030Y1805D01*
D02*
X304Y963D02*
X438Y785D01*
D02*
X438Y785D02*
X665Y784D01*
D02*
X1026Y785D02*
X722Y692D01*
D02*
X1030Y1348D02*
X1026Y785D01*
D02*
X1156Y2283D02*
X1162Y730D01*
D02*
X1162Y730D02*
X722Y593D01*
D02*
X1364Y2451D02*
X1156Y2283D01*
D02*
X2053Y1725D02*
X2055Y863D01*
D02*
X2055Y863D02*
X1937Y865D01*
D02*
X1937Y1726D02*
X2053Y1725D01*
D02*
X2054Y465D02*
X1937Y466D01*
D02*
X315Y1199D02*
X759Y1359D01*
D02*
X1593Y1431D02*
X1412Y1553D01*
D02*
X1611Y469D02*
X1593Y1431D01*
D02*
X1689Y322D02*
X1611Y469D01*
D02*
X1722Y2600D02*
X1912Y2601D01*
D02*
X1913Y2410D02*
X1722Y2468D01*
D02*
X1722Y2364D02*
X1912Y2396D01*
D02*
X1912Y2206D02*
X1722Y2233D01*
D02*
X1722Y2135D02*
X1913Y2193D01*
D02*
X1912Y2002D02*
X1722Y2003D01*
D02*
X1591Y1796D02*
X1589Y1567D01*
D02*
X1589Y1567D02*
X1417Y1569D01*
D02*
X1942Y1971D02*
X1942Y1825D01*
D02*
X1942Y1825D02*
X1740Y1828D01*
D02*
X520Y1793D02*
X297Y1218D01*
D02*
X187Y1855D02*
X385Y1828D01*
D02*
X533Y2159D02*
X533Y2046D01*
D02*
X533Y2348D02*
X533Y2222D01*
D02*
X187Y2054D02*
X385Y2019D01*
D02*
X186Y2251D02*
X385Y2197D01*
D02*
X186Y2450D02*
X385Y2388D01*
D02*
X1674Y284D02*
X1421Y194D01*
G54D22*
X2050Y875D02*
X2056Y875D01*
X2048Y874D02*
X2059Y874D01*
X2046Y873D02*
X2060Y873D01*
X2045Y872D02*
X2061Y872D01*
X2044Y871D02*
X2062Y871D01*
X2044Y870D02*
X2063Y870D01*
X2043Y869D02*
X2063Y869D01*
X2043Y868D02*
X2064Y868D01*
X2042Y867D02*
X2064Y867D01*
X2042Y866D02*
X2065Y866D01*
X2042Y865D02*
X2065Y865D01*
X2042Y864D02*
X2065Y864D01*
X2042Y863D02*
X2065Y863D01*
X2042Y862D02*
X2065Y862D01*
X2042Y861D02*
X2065Y861D01*
X2042Y860D02*
X2065Y860D01*
X2042Y859D02*
X2065Y859D01*
X2042Y858D02*
X2065Y858D01*
X2042Y857D02*
X2065Y857D01*
X2042Y856D02*
X2065Y856D01*
X2042Y855D02*
X2065Y855D01*
X2042Y854D02*
X2065Y854D01*
X2042Y853D02*
X2065Y853D01*
X2042Y852D02*
X2065Y852D01*
X2042Y851D02*
X2065Y851D01*
X2042Y850D02*
X2065Y850D01*
X2042Y849D02*
X2065Y849D01*
X2042Y848D02*
X2065Y848D01*
X2042Y847D02*
X2065Y847D01*
X2042Y846D02*
X2065Y846D01*
X2042Y845D02*
X2065Y845D01*
X2042Y844D02*
X2065Y844D01*
X2042Y843D02*
X2065Y843D01*
X2042Y842D02*
X2065Y842D01*
X2042Y841D02*
X2065Y841D01*
X2042Y840D02*
X2065Y840D01*
X2042Y839D02*
X2065Y839D01*
X2042Y838D02*
X2065Y838D01*
X2042Y837D02*
X2065Y837D01*
X2042Y836D02*
X2065Y836D01*
X2042Y835D02*
X2065Y835D01*
X2042Y834D02*
X2065Y834D01*
X2042Y833D02*
X2065Y833D01*
X2042Y832D02*
X2065Y832D01*
X2042Y831D02*
X2065Y831D01*
X2042Y830D02*
X2065Y830D01*
X2042Y829D02*
X2065Y829D01*
X2042Y828D02*
X2065Y828D01*
X2042Y827D02*
X2065Y827D01*
X2042Y826D02*
X2065Y826D01*
X2042Y825D02*
X2065Y825D01*
X2042Y824D02*
X2065Y824D01*
X2042Y823D02*
X2065Y823D01*
X2042Y822D02*
X2065Y822D01*
X2042Y821D02*
X2065Y821D01*
X2042Y820D02*
X2065Y820D01*
X2042Y819D02*
X2065Y819D01*
X2042Y818D02*
X2065Y818D01*
X2042Y817D02*
X2065Y817D01*
X2042Y816D02*
X2065Y816D01*
X2042Y815D02*
X2065Y815D01*
X2042Y814D02*
X2065Y814D01*
X2042Y813D02*
X2065Y813D01*
X2042Y812D02*
X2065Y812D01*
X2042Y811D02*
X2065Y811D01*
X2042Y810D02*
X2065Y810D01*
X2042Y809D02*
X2065Y809D01*
X2042Y808D02*
X2065Y808D01*
X2042Y807D02*
X2065Y807D01*
X2042Y806D02*
X2065Y806D01*
X2042Y805D02*
X2065Y805D01*
X2042Y804D02*
X2065Y804D01*
X2042Y803D02*
X2065Y803D01*
X2042Y802D02*
X2065Y802D01*
X2042Y801D02*
X2065Y801D01*
X2042Y800D02*
X2065Y800D01*
X2042Y799D02*
X2065Y799D01*
X2042Y798D02*
X2065Y798D01*
X2042Y797D02*
X2065Y797D01*
X2042Y796D02*
X2065Y796D01*
X2042Y795D02*
X2065Y795D01*
X2042Y794D02*
X2065Y794D01*
X2042Y793D02*
X2065Y793D01*
X2042Y792D02*
X2065Y792D01*
X2042Y791D02*
X2065Y791D01*
X2042Y790D02*
X2065Y790D01*
X2042Y789D02*
X2065Y789D01*
X2042Y788D02*
X2065Y788D01*
X2042Y787D02*
X2065Y787D01*
X2042Y786D02*
X2065Y786D01*
X2042Y785D02*
X2065Y785D01*
X2042Y784D02*
X2065Y784D01*
X2042Y783D02*
X2065Y783D01*
X2042Y782D02*
X2065Y782D01*
X2042Y781D02*
X2065Y781D01*
X2042Y780D02*
X2065Y780D01*
X2042Y779D02*
X2065Y779D01*
X2042Y778D02*
X2065Y778D01*
X2042Y777D02*
X2065Y777D01*
X2042Y776D02*
X2065Y776D01*
X2042Y775D02*
X2065Y775D01*
X2042Y774D02*
X2065Y774D01*
X2042Y773D02*
X2065Y773D01*
X2042Y772D02*
X2065Y772D01*
X2042Y771D02*
X2065Y771D01*
X2042Y770D02*
X2065Y770D01*
X2042Y769D02*
X2065Y769D01*
X2042Y768D02*
X2065Y768D01*
X2042Y767D02*
X2065Y767D01*
X2042Y766D02*
X2065Y766D01*
X2042Y765D02*
X2065Y765D01*
X2042Y764D02*
X2065Y764D01*
X2042Y763D02*
X2065Y763D01*
X2042Y762D02*
X2065Y762D01*
X2042Y761D02*
X2065Y761D01*
X2042Y760D02*
X2065Y760D01*
X2042Y759D02*
X2065Y759D01*
X2042Y758D02*
X2065Y758D01*
X2042Y757D02*
X2065Y757D01*
X2042Y756D02*
X2065Y756D01*
X2042Y755D02*
X2065Y755D01*
X2042Y754D02*
X2065Y754D01*
X2042Y753D02*
X2065Y753D01*
X2042Y752D02*
X2065Y752D01*
X2042Y751D02*
X2065Y751D01*
X2042Y750D02*
X2065Y750D01*
X2042Y749D02*
X2065Y749D01*
X2042Y748D02*
X2065Y748D01*
X2042Y747D02*
X2065Y747D01*
X2042Y746D02*
X2065Y746D01*
X2042Y745D02*
X2065Y745D01*
X2042Y744D02*
X2065Y744D01*
X2042Y743D02*
X2065Y743D01*
X2042Y742D02*
X2065Y742D01*
X2042Y741D02*
X2065Y741D01*
X2042Y740D02*
X2065Y740D01*
X2042Y739D02*
X2065Y739D01*
X2042Y738D02*
X2065Y738D01*
X2042Y737D02*
X2065Y737D01*
X2042Y736D02*
X2065Y736D01*
X2042Y735D02*
X2065Y735D01*
X2042Y734D02*
X2065Y734D01*
X2042Y733D02*
X2065Y733D01*
X2042Y732D02*
X2065Y732D01*
X2042Y731D02*
X2065Y731D01*
X2042Y730D02*
X2065Y730D01*
X2042Y729D02*
X2065Y729D01*
X2042Y728D02*
X2065Y728D01*
X2042Y727D02*
X2065Y727D01*
X2042Y726D02*
X2065Y726D01*
X2042Y725D02*
X2065Y725D01*
X2042Y724D02*
X2065Y724D01*
X2042Y723D02*
X2065Y723D01*
X2042Y722D02*
X2065Y722D01*
X2042Y721D02*
X2065Y721D01*
X2042Y720D02*
X2065Y720D01*
X2042Y719D02*
X2065Y719D01*
X2042Y718D02*
X2065Y718D01*
X2042Y717D02*
X2065Y717D01*
X2042Y716D02*
X2065Y716D01*
X2042Y715D02*
X2065Y715D01*
X2042Y714D02*
X2065Y714D01*
X2042Y713D02*
X2065Y713D01*
X2042Y712D02*
X2065Y712D01*
X2042Y711D02*
X2065Y711D01*
X2042Y710D02*
X2065Y710D01*
X2042Y709D02*
X2065Y709D01*
X2042Y708D02*
X2065Y708D01*
X2042Y707D02*
X2064Y707D01*
X2042Y706D02*
X2064Y706D01*
X2042Y705D02*
X2064Y705D01*
X2042Y704D02*
X2064Y704D01*
X2042Y703D02*
X2064Y703D01*
X2042Y702D02*
X2064Y702D01*
X2041Y701D02*
X2064Y701D01*
X2041Y700D02*
X2064Y700D01*
X2041Y699D02*
X2064Y699D01*
X2041Y698D02*
X2064Y698D01*
X2041Y697D02*
X2064Y697D01*
X2041Y696D02*
X2064Y696D01*
X2041Y695D02*
X2064Y695D01*
X2041Y694D02*
X2064Y694D01*
X2041Y693D02*
X2064Y693D01*
X2041Y692D02*
X2064Y692D01*
X2041Y691D02*
X2064Y691D01*
X2041Y690D02*
X2064Y690D01*
X2041Y689D02*
X2064Y689D01*
X2041Y688D02*
X2064Y688D01*
X2041Y687D02*
X2064Y687D01*
X2041Y686D02*
X2064Y686D01*
X2041Y685D02*
X2064Y685D01*
X2041Y684D02*
X2064Y684D01*
X2041Y683D02*
X2064Y683D01*
X2041Y682D02*
X2064Y682D01*
X2041Y681D02*
X2064Y681D01*
X2041Y680D02*
X2064Y680D01*
X2041Y679D02*
X2064Y679D01*
X2041Y678D02*
X2064Y678D01*
X2041Y677D02*
X2064Y677D01*
X2041Y676D02*
X2064Y676D01*
X2041Y675D02*
X2064Y675D01*
X2041Y674D02*
X2064Y674D01*
X2041Y673D02*
X2064Y673D01*
X2041Y672D02*
X2064Y672D01*
X2041Y671D02*
X2064Y671D01*
X2041Y670D02*
X2064Y670D01*
X2041Y669D02*
X2064Y669D01*
X2041Y668D02*
X2064Y668D01*
X2041Y667D02*
X2064Y667D01*
X2041Y666D02*
X2064Y666D01*
X2041Y665D02*
X2064Y665D01*
X2041Y664D02*
X2064Y664D01*
X2041Y663D02*
X2064Y663D01*
X2041Y662D02*
X2064Y662D01*
X2041Y661D02*
X2064Y661D01*
X2041Y660D02*
X2064Y660D01*
X2041Y659D02*
X2064Y659D01*
X2041Y658D02*
X2064Y658D01*
X2041Y657D02*
X2064Y657D01*
X2041Y656D02*
X2064Y656D01*
X2041Y655D02*
X2064Y655D01*
X2041Y654D02*
X2064Y654D01*
X2041Y653D02*
X2064Y653D01*
X2041Y652D02*
X2064Y652D01*
X2041Y651D02*
X2064Y651D01*
X2041Y650D02*
X2064Y650D01*
X2041Y649D02*
X2064Y649D01*
X2041Y648D02*
X2064Y648D01*
X2041Y647D02*
X2064Y647D01*
X2041Y646D02*
X2064Y646D01*
X2041Y645D02*
X2064Y645D01*
X2041Y644D02*
X2064Y644D01*
X2041Y643D02*
X2064Y643D01*
X2041Y642D02*
X2064Y642D01*
X2041Y641D02*
X2064Y641D01*
X2041Y640D02*
X2064Y640D01*
X2041Y639D02*
X2064Y639D01*
X2041Y638D02*
X2064Y638D01*
X2041Y637D02*
X2064Y637D01*
X2041Y636D02*
X2064Y636D01*
X2041Y635D02*
X2064Y635D01*
X2041Y634D02*
X2064Y634D01*
X2041Y633D02*
X2064Y633D01*
X2041Y632D02*
X2064Y632D01*
X2041Y631D02*
X2064Y631D01*
X2041Y630D02*
X2064Y630D01*
X2041Y629D02*
X2064Y629D01*
X2041Y628D02*
X2064Y628D01*
X2041Y627D02*
X2064Y627D01*
X2041Y626D02*
X2064Y626D01*
X2041Y625D02*
X2064Y625D01*
X2041Y624D02*
X2064Y624D01*
X2041Y623D02*
X2064Y623D01*
X2041Y622D02*
X2064Y622D01*
X2041Y621D02*
X2064Y621D01*
X2041Y620D02*
X2064Y620D01*
X2041Y619D02*
X2064Y619D01*
X2041Y618D02*
X2064Y618D01*
X2041Y617D02*
X2064Y617D01*
X2041Y616D02*
X2064Y616D01*
X2041Y615D02*
X2064Y615D01*
X2041Y614D02*
X2064Y614D01*
X2041Y613D02*
X2064Y613D01*
X2041Y612D02*
X2064Y612D01*
X2041Y611D02*
X2064Y611D01*
X2041Y610D02*
X2064Y610D01*
X2041Y609D02*
X2064Y609D01*
X2041Y608D02*
X2064Y608D01*
X2041Y607D02*
X2064Y607D01*
X2041Y606D02*
X2064Y606D01*
X2041Y605D02*
X2064Y605D01*
X2041Y604D02*
X2064Y604D01*
X2041Y603D02*
X2064Y603D01*
X2041Y602D02*
X2064Y602D01*
X2041Y601D02*
X2064Y601D01*
X2041Y600D02*
X2064Y600D01*
X2041Y599D02*
X2064Y599D01*
X2041Y598D02*
X2064Y598D01*
X2041Y597D02*
X2064Y597D01*
X2041Y596D02*
X2064Y596D01*
X2041Y595D02*
X2064Y595D01*
X2041Y594D02*
X2064Y594D01*
X2041Y593D02*
X2064Y593D01*
X2041Y592D02*
X2064Y592D01*
X2041Y591D02*
X2064Y591D01*
X2041Y590D02*
X2064Y590D01*
X2041Y589D02*
X2064Y589D01*
X2041Y588D02*
X2064Y588D01*
X2041Y587D02*
X2064Y587D01*
X2041Y586D02*
X2064Y586D01*
X2041Y585D02*
X2064Y585D01*
X2041Y584D02*
X2064Y584D01*
X2041Y583D02*
X2064Y583D01*
X2041Y582D02*
X2064Y582D01*
X2041Y581D02*
X2064Y581D01*
X2041Y580D02*
X2064Y580D01*
X2041Y579D02*
X2064Y579D01*
X2041Y578D02*
X2064Y578D01*
X2041Y577D02*
X2064Y577D01*
X2041Y576D02*
X2064Y576D01*
X2041Y575D02*
X2064Y575D01*
X2041Y574D02*
X2064Y574D01*
X2041Y573D02*
X2064Y573D01*
X2041Y572D02*
X2064Y572D01*
X2041Y571D02*
X2064Y571D01*
X2041Y570D02*
X2064Y570D01*
X2041Y569D02*
X2064Y569D01*
X2041Y568D02*
X2064Y568D01*
X2041Y567D02*
X2064Y567D01*
X2041Y566D02*
X2064Y566D01*
X2041Y565D02*
X2064Y565D01*
X2041Y564D02*
X2064Y564D01*
X2041Y563D02*
X2064Y563D01*
X2041Y562D02*
X2064Y562D01*
X2041Y561D02*
X2064Y561D01*
X2041Y560D02*
X2064Y560D01*
X2041Y559D02*
X2064Y559D01*
X2041Y558D02*
X2064Y558D01*
X2041Y557D02*
X2064Y557D01*
X2041Y556D02*
X2064Y556D01*
X2041Y555D02*
X2064Y555D01*
X2041Y554D02*
X2064Y554D01*
X2041Y553D02*
X2064Y553D01*
X2041Y552D02*
X2064Y552D01*
X2041Y551D02*
X2064Y551D01*
X2041Y550D02*
X2064Y550D01*
X2041Y549D02*
X2064Y549D01*
X2041Y548D02*
X2064Y548D01*
X2041Y547D02*
X2064Y547D01*
X2041Y546D02*
X2064Y546D01*
X2041Y545D02*
X2064Y545D01*
X2041Y544D02*
X2064Y544D01*
X2041Y543D02*
X2064Y543D01*
X2041Y542D02*
X2064Y542D01*
X2041Y541D02*
X2064Y541D01*
X2041Y540D02*
X2064Y540D01*
X2041Y539D02*
X2064Y539D01*
X2041Y538D02*
X2064Y538D01*
X2041Y537D02*
X2064Y537D01*
X2041Y536D02*
X2064Y536D01*
X2041Y535D02*
X2064Y535D01*
X2041Y534D02*
X2064Y534D01*
X2041Y533D02*
X2064Y533D01*
X2041Y532D02*
X2064Y532D01*
X2041Y531D02*
X2064Y531D01*
X2041Y530D02*
X2064Y530D01*
X2041Y529D02*
X2064Y529D01*
X2041Y528D02*
X2064Y528D01*
X2041Y527D02*
X2064Y527D01*
X2041Y526D02*
X2064Y526D01*
X2041Y525D02*
X2064Y525D01*
X2041Y524D02*
X2064Y524D01*
X2041Y523D02*
X2064Y523D01*
X2041Y522D02*
X2064Y522D01*
X2041Y521D02*
X2064Y521D01*
X2041Y520D02*
X2064Y520D01*
X2041Y519D02*
X2064Y519D01*
X2041Y518D02*
X2064Y518D01*
X2041Y517D02*
X2064Y517D01*
X2041Y516D02*
X2064Y516D01*
X2041Y515D02*
X2064Y515D01*
X2041Y514D02*
X2064Y514D01*
X2041Y513D02*
X2064Y513D01*
X2041Y512D02*
X2064Y512D01*
X2041Y511D02*
X2064Y511D01*
X2041Y510D02*
X2064Y510D01*
X2041Y509D02*
X2064Y509D01*
X2041Y508D02*
X2064Y508D01*
X2041Y507D02*
X2064Y507D01*
X2041Y506D02*
X2064Y506D01*
X2041Y505D02*
X2064Y505D01*
X2041Y504D02*
X2064Y504D01*
X2041Y503D02*
X2064Y503D01*
X2041Y502D02*
X2064Y502D01*
X2041Y501D02*
X2064Y501D01*
X2041Y500D02*
X2064Y500D01*
X2041Y499D02*
X2064Y499D01*
X2041Y498D02*
X2064Y498D01*
X2041Y497D02*
X2064Y497D01*
X2041Y496D02*
X2064Y496D01*
X2041Y495D02*
X2064Y495D01*
X2041Y494D02*
X2064Y494D01*
X2041Y493D02*
X2064Y493D01*
X2041Y492D02*
X2064Y492D01*
X2041Y491D02*
X2064Y491D01*
X2041Y490D02*
X2064Y490D01*
X2041Y489D02*
X2064Y489D01*
X2041Y488D02*
X2064Y488D01*
X2041Y487D02*
X2064Y487D01*
X2041Y486D02*
X2064Y486D01*
X2041Y485D02*
X2064Y485D01*
X2041Y484D02*
X2064Y484D01*
X2041Y483D02*
X2064Y483D01*
X2041Y482D02*
X2064Y482D01*
X2041Y481D02*
X2064Y481D01*
X2041Y480D02*
X2064Y480D01*
X2041Y479D02*
X2064Y479D01*
X2041Y478D02*
X2064Y478D01*
X2041Y477D02*
X2064Y477D01*
X2041Y476D02*
X2064Y476D01*
X2041Y475D02*
X2064Y475D01*
X2041Y474D02*
X2064Y474D01*
X2041Y473D02*
X2064Y473D01*
X2041Y472D02*
X2064Y472D01*
X2041Y471D02*
X2064Y471D01*
X2041Y470D02*
X2064Y470D01*
X2041Y469D02*
X2064Y469D01*
X2041Y468D02*
X2064Y468D01*
X2041Y467D02*
X2064Y467D01*
X2041Y466D02*
X2064Y466D01*
X2041Y465D02*
X2064Y465D01*
X2041Y464D02*
X2064Y464D01*
X2041Y463D02*
X2064Y463D01*
X2042Y462D02*
X2064Y462D01*
X2042Y461D02*
X2063Y461D01*
X2042Y460D02*
X2063Y460D01*
X2043Y459D02*
X2062Y459D01*
X2043Y458D02*
X2062Y458D01*
X2044Y457D02*
X2061Y457D01*
X2045Y456D02*
X2060Y456D01*
X2047Y455D02*
X2059Y455D01*
X2048Y454D02*
X2057Y454D01*
D02*
G04 End of Copper1*
M02*