G04 MADE WITH FRITZING*
G04 WWW.FRITZING.ORG*
G04 DOUBLE SIDED*
G04 HOLES PLATED*
G04 CONTOUR ON CENTER OF CONTOUR VECTOR*
%ASAXBY*%
%FSLAX23Y23*%
%MOIN*%
%OFA0B0*%
%SFA1.0B1.0*%
%ADD10C,0.094488*%
%ADD11C,0.075000*%
%ADD12C,0.077701*%
%ADD13C,0.070555*%
%ADD14C,0.070583*%
%ADD15C,0.099000*%
%ADD16R,0.070570X0.070542*%
%ADD17R,0.099000X0.099000*%
%ADD18C,0.024000*%
%LNCOPPER0*%
G90*
G70*
G54D10*
X239Y714D03*
X239Y514D03*
X239Y314D03*
X1895Y1132D03*
X1895Y932D03*
X1895Y732D03*
X1895Y532D03*
X1783Y314D03*
X1783Y114D03*
X1942Y2601D03*
X1942Y2401D03*
X1942Y2201D03*
X1942Y2001D03*
X1895Y1692D03*
X1895Y1492D03*
X1895Y1292D03*
X157Y1859D03*
X157Y2059D03*
X157Y2259D03*
X157Y2459D03*
G54D11*
X1030Y1776D03*
X1030Y1376D03*
G54D12*
X694Y784D03*
X694Y684D03*
X694Y584D03*
X694Y484D03*
X694Y384D03*
X694Y284D03*
X694Y184D03*
X694Y84D03*
X1393Y784D03*
X1393Y684D03*
X1393Y584D03*
X1393Y484D03*
X1393Y384D03*
X1393Y284D03*
X1393Y184D03*
X1393Y84D03*
G54D13*
X1387Y1070D03*
X1387Y1170D03*
X1387Y1270D03*
X1387Y1370D03*
X1387Y1470D03*
X1387Y1570D03*
X1387Y1670D03*
X1387Y1770D03*
X1387Y1870D03*
G54D14*
X1387Y1970D03*
X1387Y2070D03*
X1387Y2170D03*
G54D13*
X1387Y2270D03*
X1387Y2370D03*
G54D14*
X1387Y2470D03*
X1387Y2570D03*
X1387Y2670D03*
G54D13*
X787Y1070D03*
X787Y1170D03*
X787Y1270D03*
X787Y1370D03*
X787Y1470D03*
X787Y1570D03*
X787Y1870D03*
G54D14*
X787Y1970D03*
G54D13*
X787Y1770D03*
X787Y1670D03*
G54D14*
X787Y2070D03*
X787Y2170D03*
G54D13*
X787Y2270D03*
X787Y2370D03*
G54D14*
X787Y2470D03*
X787Y2570D03*
X787Y2670D03*
G54D15*
X285Y989D03*
X285Y1189D03*
X485Y1089D03*
G54D16*
X1387Y1070D03*
G54D17*
X285Y1189D03*
G54D18*
X621Y892D02*
X624Y1568D01*
D02*
X624Y1568D02*
X757Y1569D01*
D02*
X678Y808D02*
X621Y892D01*
D02*
X765Y1850D02*
X486Y1612D01*
D02*
X486Y1612D02*
X485Y1120D01*
D02*
X1546Y265D02*
X1545Y860D01*
D02*
X965Y868D02*
X886Y1252D01*
D02*
X1757Y131D02*
X1546Y265D01*
D02*
X886Y1252D02*
X816Y1264D01*
D02*
X1545Y860D02*
X965Y868D01*
D02*
X1996Y1493D02*
X1995Y1134D01*
D02*
X1995Y1134D02*
X1926Y1133D01*
D02*
X1926Y1492D02*
X1996Y1493D01*
D02*
X1791Y1131D02*
X1795Y727D01*
D02*
X1795Y727D02*
X1864Y731D01*
D02*
X1864Y1132D02*
X1791Y1131D01*
D02*
X1898Y2772D02*
X903Y2772D01*
D02*
X903Y2772D02*
X908Y1572D01*
D02*
X1935Y2631D02*
X1898Y2772D01*
D02*
X908Y1572D02*
X817Y1570D01*
D02*
X1535Y2060D02*
X1417Y2068D01*
D02*
X1526Y1293D02*
X1535Y2060D01*
D02*
X1865Y1292D02*
X1526Y1293D01*
D02*
X279Y1919D02*
X557Y1924D01*
D02*
X557Y1924D02*
X762Y2054D01*
D02*
X184Y1872D02*
X279Y1919D01*
D02*
X276Y2109D02*
X619Y2111D01*
D02*
X619Y2111D02*
X759Y2160D01*
D02*
X185Y2071D02*
X276Y2109D01*
D02*
X187Y2259D02*
X757Y2269D01*
D02*
X187Y2459D02*
X654Y2464D01*
D02*
X654Y2464D02*
X763Y2387D01*
G04 End of Copper0*
M02*